<svg xmlns="http://www.w3.org/2000/svg" xmlns:xlink="http://www.w3.org/1999/xlink" width="394.522" height="320" viewBox="0 0 394.522 320">
  <defs>
    <clipPath id="clip-path">
      <path id="Path_24708" data-name="Path 24708" d="M263.961,359.38,253,375.817l22.7,7.047,9.4-16.437Z" transform="translate(-253 -359.38)" fill="#e97758" stroke="#263238" stroke-linecap="round" stroke-linejoin="round" stroke-width="1"/>
    </clipPath>
    <linearGradient id="linear-gradient" x1="0.128" y1="0.399" x2="0.926" y2="0.803" gradientUnits="objectBoundingBox">
      <stop offset="0" stop-color="#e97758"/>
      <stop offset="1" stop-color="#d9985f"/>
    </linearGradient>
    <linearGradient id="linear-gradient-2" x1="0.5" y1="0" x2="0.5" y2="1" xlink:href="#linear-gradient"/>
    <clipPath id="clip-path-2">
      <path id="Path_24714" data-name="Path 24714" d="M368.9,358.311c-2.783-1.792-7.007-1.632-8.7,1.682-2.5,4.825-.711,13.764-1.612,15.015s-3.574,1.612-4.825-1.071-1.251-6.256-2.863-6.437-3.754.541-4.114,4.655.36,8.759,3.223,10.9,6.076,1.431,7.007,2.332,0,2.3,0,3.223c0,4,5.235,6.006,8.549,5.005,4.825-1.431,4.294-6.266,5.005-8.228s4.655-2.152,6.086-5.185,3.574-9.129.531-11.452-5.366-1.251-5.716,1.251a23.444,23.444,0,0,1-2,5.726C371.616,371.495,373.718,361.414,368.9,358.311Z" transform="translate(-346.704 -357.174)" fill="#e97758" stroke="#263238" stroke-linecap="round" stroke-linejoin="round" stroke-width="1"/>
    </clipPath>
    <linearGradient id="linear-gradient-4" x1="0.075" y1="0.092" x2="0.932" y2="0.936" xlink:href="#linear-gradient"/>
    <linearGradient id="linear-gradient-7" x1="0" y1="0.063" x2="0.957" y2="1" xlink:href="#linear-gradient"/>
    <linearGradient id="linear-gradient-8" x1="0.334" y1="0" x2="0.661" y2="1" xlink:href="#linear-gradient"/>
    <clipPath id="clip-path-3">
      <path id="Path_24823" data-name="Path 24823" d="M293.513,276.89c1.862,4.845,4.1,15.266,2.613,21.222-.771,3.093-3.353,9.59-5.646,15.126l56.928,29.751c-.06-11.852.09-30.561,1.6-34.035,2.232-5.215,20.111-54.366,19.02-65.537s-22.713-27.188-22.713-27.188L348.63,189,328.9,200.922s-2.242,10.791-4.475,13.4-20.481,6.327-25.7,13.013-3.353,27.188-3.353,28.3S291.651,272.085,293.513,276.89Z" transform="translate(-290.48 -189)" fill="#fff" stroke="#263238" stroke-linecap="round" stroke-linejoin="round" stroke-width="1"/>
    </clipPath>
    <clipPath id="clip-path-4">
      <path id="Path_24829" data-name="Path 24829" d="M300.211,143.631s2.613,13.414,2.232,22.723-4.094,13.013-3,17.128,14.525,19.37,22.713,20.851,27.558-11.171,33.144-16.757,6.327-13.774,5.586-17.128-3.724-30.161-14.9-40.962S305.426,119.807,300.211,143.631Z" transform="translate(-299.24 -122.928)" fill="#fff" stroke="#263238" stroke-linecap="round" stroke-linejoin="round" stroke-width="1"/>
    </clipPath>
    <linearGradient id="linear-gradient-9" x1="0.5" y1="0" x2="0.851" y2="1" xlink:href="#linear-gradient"/>
    <clipPath id="clip-path-5">
      <path id="Path_24851" data-name="Path 24851" d="M350.581,255.236l-25.7,58.47s-70.012,13.013-76.338,13.013-19.02,4.465-21.6,6.006-27.9,13.164-23.024,13.884c3,.451,10.771-3.824,10.771-3.824S202.4,348.792,203.51,350.6s16.016-5.586,16.016-5.586-13.624,8.008-10.831,8.459c2.543.451,5.616-1,8.228-2.873a30.272,30.272,0,0,1,7.3-3.243s-6.006,4-6.717,5.826,1.492.741,3.724,0a92.333,92.333,0,0,0,12.082-6.306c1.482-1.121,5.956-3.353,8.939-5.956l5.956-5.215s39.841,1.111,58.06.37,27.188-2.6,33.895-9.31,25.7-49.16,30.161-60.7,1.492-18.249-3-26.027" transform="translate(-203.299 -240.04)" fill="#fff" stroke="#263238" stroke-miterlimit="10" stroke-width="1"/>
    </clipPath>
    <clipPath id="clip-path-6">
      <path id="Path_24856" data-name="Path 24856" d="M294.8,280.62c-7.558,2.212-37.408,10.951-40.181,11.6a42.632,42.632,0,0,1-5.215.931s-10.431-4.475-13.224-6.517-6.146-.751-7.818,0-3,5.956.19,5.956,3.724-.19,7.257,2.793,3.544,4.475,6.146,5.586,6.9.37,9.129,0c2-.33,36.618-2.633,45.136-3.083C297.333,293.2,296.221,285.885,294.8,280.62Z" transform="translate(-226.608 -280.62)" fill="#fff" stroke="#263238" stroke-linecap="round" stroke-linejoin="round" stroke-width="1"/>
    </clipPath>
  </defs>
  <g id="Girl_Giving_Test" data-name="Girl Giving Test" transform="translate(-51.402 -100.999)">
    <g id="freepik--background-simple--inject-1--inject-47" transform="translate(62.814 100.999)">
      <path id="Path_24697" data-name="Path 24697" d="M401.758,371.428s44.155-38.74,44.155-89.862-28.659-51.133-53.455-116.98S297.171,90.219,254.567,111.13c-36.157,17.758-46.478,71.273-77.47,81.344s-34.035-14.715-83.666-1.552S69.407,276.14,69.407,276.14l96.1-29.44Z" transform="translate(-62.803 -100.999)" fill="#e97758"/>
      <path id="Path_24698" data-name="Path 24698" d="M401.758,371.428s44.155-38.74,44.155-89.862-28.659-51.133-53.455-116.98S297.171,90.219,254.567,111.13c-36.157,17.758-46.478,71.273-77.47,81.344s-34.035-14.715-83.666-1.552S69.407,276.14,69.407,276.14l96.1-29.44Z" transform="translate(-62.803 -100.999)" fill="#fff" opacity="0.7"/>
    </g>
    <g id="freepik--Shadows--inject-1--inject-47" transform="translate(86.365 298.533)">
      <path id="Path_24699" data-name="Path 24699" d="M230.478,371.06l-66.729,26.7L86.33,320.337,137.052,313l93.426,58.06" transform="translate(-86.33 -298.315)" fill="#e97758"/>
      <path id="Path_24700" data-name="Path 24700" d="M230.478,371.06l-66.729,26.7L86.33,320.337,137.052,313l93.426,58.06" transform="translate(-86.33 -298.315)" fill="#fff" opacity="0.5"/>
      <ellipse id="Ellipse_766" data-name="Ellipse 766" cx="16.016" cy="10.681" rx="16.016" ry="10.681" transform="translate(210.216 86.759)" fill="#e97758"/>
      <ellipse id="Ellipse_767" data-name="Ellipse 767" cx="16.016" cy="10.681" rx="16.016" ry="10.681" transform="translate(210.216 86.759)" fill="#fff" opacity="0.5"/>
      <path id="Path_24701" data-name="Path 24701" d="M249.67,335.094l97.78,7.748-21.7-11.171-76.078,3.424" transform="translate(-86.162 -298.296)" fill="#e97758"/>
      <path id="Path_24702" data-name="Path 24702" d="M249.67,335.094l97.78,7.748-21.7-11.171-76.078,3.424" transform="translate(-86.162 -298.296)" fill="#fff" opacity="0.5"/>
      <path id="Path_24703" data-name="Path 24703" d="M271.7,305.007l-29.01-2.372,3.644-4.3h16.687l8.679,6.677" transform="translate(-86.169 -298.33)" fill="#e97758"/>
      <path id="Path_24704" data-name="Path 24704" d="M271.7,305.007l-29.01-2.372,3.644-4.3h16.687l8.679,6.677" transform="translate(-86.169 -298.33)" fill="#fff" opacity="0.5"/>
      <ellipse id="Ellipse_768" data-name="Ellipse 768" cx="20.351" cy="12.343" rx="20.351" ry="12.343" transform="translate(259.246 97.78)" fill="#e97758"/>
      <ellipse id="Ellipse_769" data-name="Ellipse 769" cx="20.351" cy="12.343" rx="20.351" ry="12.343" transform="translate(259.246 97.78)" fill="#fff" opacity="0.5"/>
    </g>
    <g id="freepik--Post-it--inject-1--inject-47" transform="translate(234.407 359.646)">
      <path id="Path_24705" data-name="Path 24705" d="M245.181,379.71,234.22,397.718l24.275,4.7,9.4-18.008Z" transform="translate(-234.22 -359.359)" fill="#fff" stroke="#263238" stroke-linecap="round" stroke-linejoin="round" stroke-width="1"/>
      <path id="Path_24706" data-name="Path 24706" d="M263.961,359.38,253,375.817l22.7,7.047,9.4-16.437Z" transform="translate(-234.201 -359.38)" fill="#e97758"/>
      <g id="Group_6022" data-name="Group 6022" transform="translate(18.799 0)" clip-path="url(#clip-path)">
        <path id="Path_24707" data-name="Path 24707" d="M263.961,359.38,253,375.817l22.7,7.047,9.4-16.437Z" transform="translate(-253 -359.38)" fill="#fff" stroke="#263238" stroke-miterlimit="10" stroke-width="1" opacity="0.5"/>
      </g>
      <path id="Path_24709" data-name="Path 24709" d="M263.961,359.38,253,375.817l22.7,7.047,9.4-16.437Z" transform="translate(-234.201 -359.38)" fill="none" stroke="#263238" stroke-linecap="round" stroke-linejoin="round" stroke-width="1"/>
      <path id="Path_24710" data-name="Path 24710" d="M288.22,390.67l-19.58,5.476,7.828,12.533,22.713-5.486Z" transform="translate(-234.185 -359.348)" stroke="#263238" stroke-linecap="round" stroke-linejoin="round" stroke-width="1" fill="url(#linear-gradient)"/>
    </g>
    <g id="freepik--Plant--inject-1--inject-47" transform="translate(344.26 357.438)">
      <path id="Path_24711" data-name="Path 24711" d="M344,387.46l2,15.206c0,6.3,7.658,11.412,17.108,11.412s17.118-5.115,17.118-11.412l2.062-15.206Z" transform="translate(-343.96 -357.143)" stroke="#263238" stroke-linecap="round" stroke-linejoin="round" stroke-width="1" fill="url(#linear-gradient-2)"/>
      <ellipse id="Ellipse_770" data-name="Ellipse 770" cx="19.17" cy="12.783" rx="19.17" ry="12.783" transform="translate(0 17.534)" stroke="#263238" stroke-linecap="round" stroke-linejoin="round" stroke-width="1" fill="url(#linear-gradient-2)"/>
      <ellipse id="Ellipse_771" data-name="Ellipse 771" cx="16.307" cy="10.871" rx="16.307" ry="10.871" transform="translate(2.863 19.446)" fill="#e97758" stroke="#263238" stroke-linecap="round" stroke-linejoin="round" stroke-width="1"/>
      <ellipse id="Ellipse_772" data-name="Ellipse 772" cx="16.026" cy="8.909" rx="16.026" ry="8.909" transform="translate(3.143 23.38)" fill="#263238" stroke="#263238" stroke-linecap="round" stroke-linejoin="round" stroke-width="1"/>
      <path id="Path_24712" data-name="Path 24712" d="M368.9,358.311c-2.783-1.792-7.007-1.632-8.7,1.682-2.5,4.825-.711,13.764-1.612,15.015s-3.574,1.612-4.825-1.071-1.251-6.256-2.863-6.437-3.754.541-4.114,4.655.36,8.759,3.223,10.9,6.076,1.431,7.007,2.332,0,2.3,0,3.223c0,4,5.235,6.006,8.549,5.005,4.825-1.431,4.294-6.266,5.005-8.228s4.655-2.152,6.086-5.185,3.574-9.129.531-11.452-5.366-1.251-5.716,1.251a23.444,23.444,0,0,1-2,5.726C371.616,371.495,373.718,361.414,368.9,358.311Z" transform="translate(-343.957 -357.174)" fill="#e97758"/>
      <g id="Group_6023" data-name="Group 6023" transform="translate(2.747 0)" clip-path="url(#clip-path-2)">
        <path id="Path_24713" data-name="Path 24713" d="M368.9,358.311c-2.783-1.792-7.007-1.632-8.7,1.682-2.5,4.825-.711,13.764-1.612,15.015s-3.574,1.612-4.825-1.071-1.251-6.256-2.863-6.437-3.754.541-4.114,4.655.36,8.759,3.223,10.9,6.076,1.431,7.007,2.332,0,2.3,0,3.223c0,4,5.235,6.006,8.549,5.005,4.825-1.431,4.294-6.266,5.005-8.228s4.655-2.152,6.086-5.185,3.574-9.129.531-11.452-5.366-1.251-5.716,1.251a23.444,23.444,0,0,1-2,5.726C371.616,371.495,373.718,361.414,368.9,358.311Z" transform="translate(-346.704 -357.174)" opacity="0.2"/>
      </g>
      <path id="Path_24715" data-name="Path 24715" d="M368.9,358.311c-2.783-1.792-7.007-1.632-8.7,1.682-2.5,4.825-.711,13.764-1.612,15.015s-3.574,1.612-4.825-1.071-1.251-6.256-2.863-6.437-3.754.541-4.114,4.655.36,8.759,3.223,10.9,6.076,1.431,7.007,2.332,0,2.3,0,3.223c0,4,5.235,6.006,8.549,5.005,4.825-1.431,4.294-6.266,5.005-8.228s4.655-2.152,6.086-5.185,3.574-9.129.531-11.452-5.366-1.251-5.716,1.251a23.444,23.444,0,0,1-2,5.726C371.616,371.495,373.718,361.414,368.9,358.311Z" transform="translate(-343.957 -357.174)" fill="none" stroke="#263238" stroke-linecap="round" stroke-linejoin="round" stroke-width="1"/>
      <path id="Path_24716" data-name="Path 24716" d="M364.494,359.63a6.406,6.406,0,0,0-2.863,4.825c-.18,3.223,0,13.414-1.251,14.845s-5.365,1.071-8.008-1.431-1.472-7.858-1.472-7.858" transform="translate(-343.953 -357.172)" fill="none" stroke="#263238" stroke-linecap="round" stroke-linejoin="round" stroke-width="0.5"/>
      <path id="Path_24717" data-name="Path 24717" d="M351.69,381a8.138,8.138,0,0,0,3.143,1.5c3.223.711,5.546-.891,6.086.711s-.541,7.338-.541,7.338" transform="translate(-343.952 -357.15)" fill="none" stroke="#263238" stroke-linecap="round" stroke-linejoin="round" stroke-width="0.5"/>
      <path id="Path_24718" data-name="Path 24718" d="M349.83,379.1a8.089,8.089,0,0,0,1.141,1.291" transform="translate(-343.954 -357.152)" fill="none" stroke="#263238" stroke-linecap="round" stroke-linejoin="round" stroke-width="0.5"/>
      <path id="Path_24719" data-name="Path 24719" d="M364.42,387.633a66.623,66.623,0,0,0,.06-8.008c-.32-4,1.542-11.442,2-14.805" transform="translate(-343.939 -357.167)" fill="none" stroke="#263238" stroke-linecap="round" stroke-linejoin="round" stroke-width="0.5"/>
      <path id="Path_24720" data-name="Path 24720" d="M364.12,391.793s.1-1.091.21-2.693" transform="translate(-343.939 -357.142)" fill="none" stroke="#263238" stroke-linecap="round" stroke-linejoin="round" stroke-width="0.5"/>
      <path id="Path_24721" data-name="Path 24721" d="M376.49,373.891c.09-.871.14-1.4.14-1.4" transform="translate(-343.927 -357.159)" fill="none" stroke="#263238" stroke-linecap="round" stroke-linejoin="round" stroke-width="0.5"/>
      <path id="Path_24722" data-name="Path 24722" d="M368.05,388.583s.721-5.9,2.152-7.007,5.536-1.792,5.9-4.475c.06-.42.11-.821.16-1.191" transform="translate(-343.935 -357.155)" fill="none" stroke="#263238" stroke-linecap="round" stroke-linejoin="round" stroke-width="0.5"/>
      <path id="Path_24723" data-name="Path 24723" d="M374.134,370.17a2.473,2.473,0,0,0-1.081,2.322,5.746,5.746,0,0,1-2.853,5.365" transform="translate(-343.933 -357.161)" fill="none" stroke="#263238" stroke-linecap="round" stroke-linejoin="round" stroke-width="0.5"/>
      <path id="Path_24724" data-name="Path 24724" d="M366.68,362.783a20.426,20.426,0,0,0-.06-3" transform="translate(-343.937 -357.172)" fill="none" stroke="#263238" stroke-linecap="round" stroke-linejoin="round" stroke-width="0.5"/>
    </g>
    <g id="freepik--Cup--inject-1--inject-47" transform="translate(297.072 341.087)">
      <path id="Path_24725" data-name="Path 24725" d="M298.58,358.86l2.653,27.929v2.953c0,4,5.626,7.177,12.573,7.177s12.573-3.213,12.573-7.177v-2.953l2.412-28.219Z" transform="translate(-296.818 -340.822)" fill="#fff" stroke="#263238" stroke-linecap="round" stroke-linejoin="round" stroke-width="1"/>
      <path id="Path_24726" data-name="Path 24726" d="M326.5,385.267,327.889,369c-1.872,2.913-7.458,5.005-14.064,5.005-6.957,0-12.773-2.342-14.325-5.5l1.582,16.657c2.563,2.132,7.3,3.574,12.743,3.574S323.935,387.369,326.5,385.267Z" transform="translate(-296.817 -340.812)" stroke="#263238" stroke-linecap="round" stroke-linejoin="round" stroke-width="1" fill="url(#linear-gradient-4)"/>
      <path id="Path_24727" data-name="Path 24727" d="M299.08,364.121v-.19l-.13-1.121Z" transform="translate(-296.818 -340.817)" fill="#fff" stroke="#263238" stroke-linecap="round" stroke-linejoin="round" stroke-width="1"/>
      <path id="Path_24728" data-name="Path 24728" d="M329.273,354.726c-2.663-3.363-8.579-5.716-15.466-5.716s-12.8,2.352-15.476,5.716H296.82v4c0,5.366,7.608,9.71,17.017,9.71s17.017-4.344,17.017-9.71v-4Z" transform="translate(-296.82 -340.832)" fill="#e97758" stroke="#263238" stroke-linecap="round" stroke-linejoin="round" stroke-width="1"/>
      <path id="Path_24729" data-name="Path 24729" d="M329.273,354.726c-2.663-3.363-8.579-5.716-15.466-5.716s-12.8,2.352-15.476,5.716H296.82v4c0,5.366,7.608,9.71,17.017,9.71s17.017-4.344,17.017-9.71v-4Z" transform="translate(-296.82 -340.832)" opacity="0.2" fill="url(#linear-gradient-4)"/>
      <ellipse id="Ellipse_773" data-name="Ellipse 773" cx="16.987" cy="9.71" rx="16.987" ry="9.71" transform="translate(0 4.184)" fill="#fff" stroke="#263238" stroke-linecap="round" stroke-linejoin="round" stroke-width="1"/>
      <path id="Path_24730" data-name="Path 24730" d="M327.319,349.315c-2.332-2.943-7.5-5.005-13.514-5.005s-11.181,2.052-13.514,5.005H299V352.8c0,4.685,6.637,8.479,14.835,8.479s14.835-3.794,14.835-8.479v-3.484Z" transform="translate(-296.818 -340.836)" stroke="#263238" stroke-linecap="round" stroke-linejoin="round" stroke-width="1" fill="url(#linear-gradient-4)"/>
      <ellipse id="Ellipse_774" data-name="Ellipse 774" cx="14.835" cy="8.479" rx="14.835" ry="8.479" transform="translate(2.152)" fill="#fff" stroke="#263238" stroke-linecap="round" stroke-linejoin="round" stroke-width="1"/>
    </g>
    <g id="freepik--Cat--inject-1--inject-47" transform="translate(125.419 195.925)">
      <path id="Path_24731" data-name="Path 24731" d="M164.21,267.06s1.161-.771,8.529,2.322S183,271.8,190.167,270.544c8.609-1.5,15.756-3,16.617.481,1.492,6.006-4.535,5.936-15.376,7.1s-17.128-2.152-20.611-3.7a35.1,35.1,0,0,1-4.645-2.322Z" transform="translate(-125.304 -195.754)" fill="#fff" stroke="#263238" stroke-linecap="round" stroke-linejoin="round" stroke-width="1"/>
      <path id="Path_24732" data-name="Path 24732" d="M147.57,270.169s9.69,11.232,13.944,8.128,3.874-13.164,0-16.267S146.8,264.744,147.57,270.169Z" transform="translate(-125.321 -195.76)" fill="#fff" stroke="#263238" stroke-linecap="round" stroke-linejoin="round" stroke-width="1"/>
      <path id="Path_24733" data-name="Path 24733" d="M177.053,239.212s.39,10.461-2.322,17.428-7.748,11.622-8.519,15.5-.39,9.3-4.264,10.851-3.874-1.161-3.484-4.264,1.161-14.715,1.161-14.715l-12.8,7.738s3.484,9.69-3.874,10.851-16.267-10.07-17.428-18.559S129,236.53,137.142,231.494s18.589-4.254,24.025-4.254S174.711,231.084,177.053,239.212Z" transform="translate(-125.344 -195.795)" fill="#fff" stroke="#263238" stroke-linecap="round" stroke-linejoin="round" stroke-width="1"/>
      <path id="Path_24734" data-name="Path 24734" d="M146.157,228.461s-2,1-5.5,6.5,3.494,10.231,7.247,7.738.491-7.738,3.243-10.241a8.879,8.879,0,0,0,3-5.245Z" transform="translate(-125.329 -195.795)" fill="#263238"/>
      <path id="Path_24735" data-name="Path 24735" d="M134.933,236.192a7.9,7.9,0,0,0-3.253,5.5c-.25,3.494,6.006-3,6.747-6.006S134.933,236.192,134.933,236.192Z" transform="translate(-125.337 -195.788)" fill="#263238"/>
      <path id="Path_24736" data-name="Path 24736" d="M157.251,228.371a10.16,10.16,0,0,0,.39,10.451c3.484,5.426,11.232,7.748,14.325,3.874s4.264-5.806,3.1-7.738S162.677,225.268,157.251,228.371Z" transform="translate(-125.312 -195.795)" fill="#e97758" stroke="#263238" stroke-linecap="round" stroke-linejoin="round" stroke-width="1"/>
      <path id="Path_24737" data-name="Path 24737" d="M185.915,209.424a10.27,10.27,0,0,1-8.128-2.713c-3.874-3.484-7.368-11.232-8.909-10.851s-7.007,11.622-7.007,11.622-9.3.781-10.07,3.484,3.484,15.5,7.007,20.921a18.669,18.669,0,0,0,14.715,8.158c4.645,0,18.589,1.161,20.531-3.494s.38-18.589.38-18.589,6.206-6.2,3.494-7.358S185.915,209.424,185.915,209.424Z" transform="translate(-125.317 -195.827)" fill="#fff" stroke="#263238" stroke-linecap="round" stroke-linejoin="round" stroke-width="1"/>
      <path id="Path_24738" data-name="Path 24738" d="M184.013,228.774c-.47-.611-.921-1.231-1.361-1.872-.731-1.081-2.463-2.733-5.8-1.682-4.745,1.492-8.008,6.006-2.743,9.74C179.068,238.514,189.018,235.311,184.013,228.774Z" transform="translate(-125.296 -195.798)" fill="#263238"/>
      <path id="Path_24739" data-name="Path 24739" d="M161.89,207.482s5.426,3.1,8.519,1.942,1.161-14.335-1.542-13.564S161.5,202.447,161.89,207.482Z" transform="translate(-125.306 -195.827)" fill="#fff" stroke="#263238" stroke-linecap="round" stroke-linejoin="round" stroke-width="1"/>
      <path id="Path_24740" data-name="Path 24740" d="M197.89,210.57s-5.005-.39-8.138,3.093-1.161,7.007,3.1,7.748S199.432,210.57,197.89,210.57Z" transform="translate(-125.279 -195.812)" fill="#fff" stroke="#263238" stroke-linecap="round" stroke-linejoin="round" stroke-width="1"/>
      <path id="Path_24741" data-name="Path 24741" d="M167.7,232.242s-5.005-3.874-3.874-.781,3.093,3.494,5.005,2.713S167.7,232.242,167.7,232.242Z" transform="translate(-125.304 -195.792)" fill="#e97758" stroke="#263238" stroke-linecap="round" stroke-linejoin="round" stroke-width="1"/>
      <path id="Path_24742" data-name="Path 24742" d="M164.943,222.542c-.29,1-1.111,1.7-1.832,1.5s-1.071-1.2-.781-2.232,1.111-1.7,1.832-1.5S165.233,221.521,164.943,222.542Z" transform="translate(-125.306 -195.802)" fill="#263238"/>
      <path id="Path_24743" data-name="Path 24743" d="M176.873,231.673c-.931.541-2,.46-2.362-.19s.06-1.6,1-2.142a1.742,1.742,0,0,1,2.362.18C178.234,230.171,177.794,231.132,176.873,231.673Z" transform="translate(-125.293 -195.793)" fill="#fff"/>
      <path id="Path_24744" data-name="Path 24744" d="M142.16,256.232s-1.161,8.519.38,12.012,3.1,16.657,6.206,17.017,1.932-7.007,1.932-8.138.39-13.554.39-13.554,2.713-5.816,4.254-8.909" transform="translate(-125.327 -195.767)" fill="#fff" stroke="#263238" stroke-linecap="round" stroke-linejoin="round" stroke-width="1"/>
      <path id="Path_24745" data-name="Path 24745" d="M129.39,255.84s10.461-3.1,11.622,8.519" transform="translate(-125.339 -195.766)" fill="none" stroke="#263238" stroke-linecap="round" stroke-linejoin="round" stroke-width="1"/>
      <path id="Path_24746" data-name="Path 24746" d="M159.57,264.015s8.909-4.655,9.3-14.725" transform="translate(-125.308 -195.773)" fill="none" stroke="#263238" stroke-linecap="round" stroke-linejoin="round" stroke-width="1"/>
    </g>
    <g id="freepik--Character--inject-1--inject-47" transform="translate(52 105.625)">
      <line id="Line_207" data-name="Line 207" y1="1.492" x2="6.597" transform="translate(0 172.897)" fill="none" stroke="#263238" stroke-linecap="round" stroke-linejoin="round" stroke-width="1"/>
      <path id="Path_24747" data-name="Path 24747" d="M107,318.736l53.195-15.085a7.377,7.377,0,0,1,4.815,1.161l86.559,55.307a2.142,2.142,0,0,1-.891,3.924l-72.795,22.673Z" transform="translate(-51.943 -105.417)" fill="#e97758" stroke="#263238" stroke-linecap="round" stroke-linejoin="round" stroke-width="1"/>
      <path id="Path_24748" data-name="Path 24748" d="M138.07,321.9l7.538,5.2,8.709-2.463-7.528-5.185Z" transform="translate(-51.912 -105.401)" fill="#263238"/>
      <path id="Path_24749" data-name="Path 24749" d="M142.777,336.415l-7.528-5.2-8.719,2.463,7.538,5.2Z" transform="translate(-51.923 -105.389)" fill="#263238"/>
      <path id="Path_24750" data-name="Path 24750" d="M156.99,325.083l7.528,5.185,8.709-2.463L165.7,322.62Z" transform="translate(-51.892 -105.397)" fill="#263238"/>
      <path id="Path_24751" data-name="Path 24751" d="M165.76,331.122l7.528,5.185L182,333.845l-7.528-5.185Z" transform="translate(-51.883 -105.391)" fill="#263238"/>
      <path id="Path_24752" data-name="Path 24752" d="M146.84,327.943l7.528,5.2,8.709-2.463-7.528-5.185Z" transform="translate(-51.903 -105.395)" fill="#263238"/>
      <path id="Path_24753" data-name="Path 24753" d="M127.92,324.773l7.528,5.2,8.719-2.463-7.538-5.2Z" transform="translate(-51.922 -105.398)" fill="#263238"/>
      <path id="Path_24754" data-name="Path 24754" d="M187.987,357.705l-7.538-5.2-8.7,2.463,7.528,5.2Z" transform="translate(-51.877 -105.367)" fill="#263238"/>
      <path id="Path_24755" data-name="Path 24755" d="M177.827,360.575l-7.528-5.2-8.709,2.463,7.538,5.185Z" transform="translate(-51.887 -105.364)" fill="#263238"/>
      <path id="Path_24756" data-name="Path 24756" d="M151.537,342.455l-7.528-5.2-8.709,2.463,7.528,5.185Z" transform="translate(-51.914 -105.382)" fill="#263238"/>
      <path id="Path_24757" data-name="Path 24757" d="M196.747,363.745l-7.528-5.185-8.709,2.453,7.528,5.2Z" transform="translate(-51.868 -105.361)" fill="#263238"/>
      <path id="Path_24758" data-name="Path 24758" d="M160.307,348.5l-7.538-5.2-8.709,2.463,7.538,5.185Z" transform="translate(-51.905 -105.376)" fill="#263238"/>
      <path id="Path_24759" data-name="Path 24759" d="M169.067,354.535l-7.528-5.2L152.83,351.8l7.528,5.2Z" transform="translate(-51.896 -105.37)" fill="#263238"/>
      <path id="Path_24760" data-name="Path 24760" d="M174.52,337.163l7.528,5.185,8.709-2.463-7.528-5.185Z" transform="translate(-51.874 -105.385)" fill="#263238"/>
      <path id="Path_24761" data-name="Path 24761" d="M136.69,330.813l7.528,5.2,8.709-2.462L145.4,328.36Z" transform="translate(-51.913 -105.392)" fill="#263238"/>
      <path id="Path_24762" data-name="Path 24762" d="M206.9,360.875l-7.528-5.185-8.709,2.462,7.528,5.185Z" transform="translate(-51.857 -105.363)" fill="#263238"/>
      <path id="Path_24763" data-name="Path 24763" d="M180.607,342.755l-7.528-5.185-8.709,2.453,7.528,5.2Z" transform="translate(-51.884 -105.382)" fill="#263238"/>
      <path id="Path_24764" data-name="Path 24764" d="M161.687,339.585l-7.528-5.2-8.709,2.462,7.528,5.2Z" transform="translate(-51.904 -105.385)" fill="#263238"/>
      <path id="Path_24765" data-name="Path 24765" d="M125.241,324.333l-4.4-3.043-5.956,1.672,3.484,3.313Z" transform="translate(-51.935 -105.399)" fill="#263238"/>
      <path id="Path_24766" data-name="Path 24766" d="M134.005,330.375l-7.528-5.2L119.34,327.2l5.9,5.586.06.04Z" transform="translate(-51.931 -105.395)" fill="#263238"/>
      <path id="Path_24767" data-name="Path 24767" d="M155.6,333.993l7.538,5.185,8.709-2.463-7.538-5.185Z" transform="translate(-51.894 -105.388)" fill="#263238"/>
      <path id="Path_24768" data-name="Path 24768" d="M170.457,345.625l-7.528-5.185-8.709,2.452,7.528,5.2Z" transform="translate(-51.895 -105.379)" fill="#263238"/>
      <path id="Path_24769" data-name="Path 24769" d="M208.287,351.965l-7.528-5.185-8.709,2.463,7.528,5.185Z" transform="translate(-51.856 -105.373)" fill="#263238"/>
      <path id="Path_24770" data-name="Path 24770" d="M183.28,343.2l7.538,5.185,8.709-2.462L192,340.74Z" transform="translate(-51.865 -105.379)" fill="#263238"/>
      <path id="Path_24771" data-name="Path 24771" d="M198.137,354.835l-7.528-5.185-8.709,2.462,7.528,5.185Z" transform="translate(-51.866 -105.37)" fill="#263238"/>
      <path id="Path_24772" data-name="Path 24772" d="M189.367,348.8l-7.528-5.185-8.709,2.453,7.538,5.2Z" transform="translate(-51.875 -105.376)" fill="#263238"/>
      <path id="Path_24773" data-name="Path 24773" d="M179.217,351.665l-7.528-5.185-8.709,2.452,7.528,5.2Z" transform="translate(-51.886 -105.373)" fill="#263238"/>
      <path id="Path_24774" data-name="Path 24774" d="M141.378,345.315l-7.528-5.185-.671.19,5.936,5.636Z" transform="translate(-51.917 -105.379)" fill="#263238"/>
      <path id="Path_24775" data-name="Path 24775" d="M208.139,361.73l-8.709,2.462,9.029,6.216,8.489-2.613Z" transform="translate(-51.848 -105.357)" fill="#263238"/>
      <path id="Path_24776" data-name="Path 24776" d="M197.979,364.6l-8.709,2.453,9.3,6.407,8.479-2.613Z" transform="translate(-51.859 -105.354)" fill="#263238"/>
      <path id="Path_24777" data-name="Path 24777" d="M158.912,357.4l-7.528-5.185-4.375,1.231,5.946,5.646Z" transform="translate(-51.902 -105.367)" fill="#263238"/>
      <path id="Path_24778" data-name="Path 24778" d="M217.057,358.005l-7.538-5.185-8.709,2.463,7.538,5.185Z" transform="translate(-51.847 -105.366)" fill="#263238"/>
      <path id="Path_24779" data-name="Path 24779" d="M167.674,363.445l-7.528-5.2-6.216,1.762,5.936,5.636Z" transform="translate(-51.895 -105.361)" fill="#263238"/>
      <path id="Path_24780" data-name="Path 24780" d="M176.446,369.485l-7.528-5.2-8.078,2.282,5.946,5.636Z" transform="translate(-51.888 -105.355)" fill="#263238"/>
      <path id="Path_24781" data-name="Path 24781" d="M186.6,366.615l-7.528-5.2-8.709,2.463,7.528,5.2Z" transform="translate(-51.878 -105.358)" fill="#263238"/>
      <path id="Path_24782" data-name="Path 24782" d="M235.736,358.473l-5.005-3.133-11.011,3.113,8.509,5.866,6.627-2a2.072,2.072,0,0,0,.881-3.844Z" transform="translate(-51.828 -105.364)" fill="#263238"/>
      <path id="Path_24783" data-name="Path 24783" d="M177.68,370.33l-9.92,2.8,7.808,7.408,11.7-3.6Z" transform="translate(-51.881 -105.348)" fill="#263238"/>
      <path id="Path_24784" data-name="Path 24784" d="M221.451,349.45l-10.481,2.963L218.5,357.6l10.961-3.093Z" transform="translate(-51.837 -105.37)" fill="#263238"/>
      <path id="Path_24785" data-name="Path 24785" d="M218.289,358.86l-8.709,2.463,8.769,6.046,8.489-2.613Z" transform="translate(-51.838 -105.36)" fill="#263238"/>
      <path id="Path_24786" data-name="Path 24786" d="M157.144,315.315l7.117-2.012-4.595-2.9-6.867,1.922Z" transform="translate(-51.896 -105.41)" fill="#263238"/>
      <path id="Path_24787" data-name="Path 24787" d="M197.159,373.9l-9.33-6.437-8.709,2.463,9.55,6.587Z" transform="translate(-51.869 -105.351)" fill="#263238"/>
      <path id="Path_24788" data-name="Path 24788" d="M158.38,316.172l7.528,5.185,7.678-2.162-8.008-5.055Z" transform="translate(-51.891 -105.406)" fill="#263238"/>
      <path id="Path_24789" data-name="Path 24789" d="M175.91,328.252l7.528,5.185,8.769-2.473-8-5.055Z" transform="translate(-51.873 -105.394)" fill="#263238"/>
      <path id="Path_24790" data-name="Path 24790" d="M167.14,322.212l7.538,5.185,8.218-2.322-8.008-5.055Z" transform="translate(-51.882 -105.4)" fill="#263238"/>
      <path id="Path_24791" data-name="Path 24791" d="M184.67,334.293l7.528,5.185,9.32-2.623-8-5.065Z" transform="translate(-51.864 -105.388)" fill="#263238"/>
      <path id="Path_24792" data-name="Path 24792" d="M193.44,340.333l7.528,5.185,9.86-2.783-8-5.055Z" transform="translate(-51.855 -105.382)" fill="#263238"/>
      <path id="Path_24793" data-name="Path 24793" d="M212.14,343.56l-9.94,2.813,7.528,5.185,10.411-2.933Z" transform="translate(-51.846 -105.376)" fill="#263238"/>
      <path id="Path_24794" data-name="Path 24794" d="M148.23,319.043l7.528,5.185,8.709-2.463-7.528-5.185Z" transform="translate(-51.901 -105.404)" fill="#263238"/>
      <path id="Path_24795" data-name="Path 24795" d="M130.66,337.94l1.542,1.452.4-.12Z" transform="translate(-51.919 -105.382)" fill="#263238"/>
      <path id="Path_24796" data-name="Path 24796" d="M126.685,323.926l8.709-2.463-4.385-3.023-8.729,2.443Z" transform="translate(-51.928 -105.402)" fill="#263238"/>
      <path id="Path_24797" data-name="Path 24797" d="M136.835,321.056l8.709-2.463-4.364-3.013-8.729,2.453Z" transform="translate(-51.917 -105.405)" fill="#263238"/>
      <path id="Path_24798" data-name="Path 24798" d="M142.63,315.182l4.364,3,8.709-2.463-4.354-2.993Z" transform="translate(-51.907 -105.408)" fill="#263238"/>
      <path id="Path_24799" data-name="Path 24799" d="M150.14,351.365l-7.528-5.2-2.523.711,5.946,5.636Z" transform="translate(-51.909 -105.373)" fill="#263238"/>
      <path id="Path_24800" data-name="Path 24800" d="M177.854,386.791,154.83,293.586a11.231,11.231,0,0,0-3.253-5.526L89.513,230.19A1.682,1.682,0,0,0,86.73,231.8l20.291,87.009Z" transform="translate(-51.964 -105.493)" stroke="#263238" stroke-linecap="round" stroke-linejoin="round" stroke-width="1" fill="url(#linear-gradient-7)"/>
      <path id="Path_24801" data-name="Path 24801" d="M143,284.19l7.1,6.206s2.212.44,4.425,11.522" transform="translate(-51.906 -105.437)" fill="none" stroke="#263238" stroke-linecap="round" stroke-linejoin="round" stroke-width="0.5"/>
      <line id="Line_208" data-name="Line 208" x2="13.083" y2="56.698" transform="translate(103.947 202.237)" fill="none" stroke="#263238" stroke-linecap="round" stroke-linejoin="round" stroke-width="0.5"/>
      <path id="Path_24802" data-name="Path 24802" d="M117.585,281.672c3.073,7.468,2.793,14.665-.631,16.077s-8.7-3.5-11.772-11.011-2.793-14.665.631-16.066S114.512,274.2,117.585,281.672Z" transform="translate(-51.948 -105.451)" fill="#e97758"/>
      <path id="Path_24803" data-name="Path 24803" d="M117.585,281.672c3.073,7.468,2.793,14.665-.631,16.077s-8.7-3.5-11.772-11.011-2.793-14.665.631-16.066S114.512,274.2,117.585,281.672Z" transform="translate(-51.948 -105.451)" fill="#fff" opacity="0.6"/>
      <ellipse id="Ellipse_775" data-name="Ellipse 775" cx="4.765" cy="10.401" rx="4.765" ry="10.401" transform="translate(51.07 170.969) rotate(-22.38)" fill="none" stroke="#263238" stroke-miterlimit="10" stroke-width="1"/>
      <path id="Path_24804" data-name="Path 24804" d="M122.32,312.256c1.6,3.874.941,7.818-1.461,8.809s-5.646-1.351-7.247-5.215-.931-7.818,1.472-8.809S120.728,308.392,122.32,312.256Z" transform="translate(-51.938 -105.414)" fill="#263238"/>
      <path id="Path_24805" data-name="Path 24805" d="M119,318.81c-1.512,0-3.153-1.371-4-3.514a6.537,6.537,0,0,1-.48-3.5,2.863,2.863,0,0,1,1.622-2.332c1.692-.7,3.854.771,4.915,3.343h0c1.051,2.573.551,5.135-1.141,5.836A2.423,2.423,0,0,1,119,318.81Zm-2-8.519a1.24,1.24,0,0,0-.5.1,1.9,1.9,0,0,0-1,1.572,5.516,5.516,0,0,0,.42,3c.811,2,2.463,3.263,3.6,2.793s1.411-2.543.591-4.525C119.365,311.482,118,310.291,117,310.291Z" transform="translate(-51.936 -105.411)" fill="#e97758"/>
      <g id="Group_6024" data-name="Group 6024" transform="translate(62.522 203.875)" opacity="0.5">
        <path id="Path_24806" data-name="Path 24806" d="M119,318.81c-1.512,0-3.153-1.371-4-3.514a6.537,6.537,0,0,1-.48-3.5,2.863,2.863,0,0,1,1.622-2.332c1.692-.7,3.854.771,4.915,3.343h0c1.051,2.573.551,5.135-1.141,5.836A2.423,2.423,0,0,1,119,318.81Zm-2-8.519a1.24,1.24,0,0,0-.5.1,1.9,1.9,0,0,0-1,1.572,5.516,5.516,0,0,0,.42,3c.811,2,2.463,3.263,3.6,2.793s1.411-2.543.591-4.525C119.365,311.482,118,310.291,117,310.291Z" transform="translate(-114.458 -309.286)" fill="#fff"/>
      </g>
      <path id="Path_24807" data-name="Path 24807" d="M140.146,313.491l-5.7,9.009a1.331,1.331,0,0,0,0,1.482l12.193,17.778a1.361,1.361,0,0,0,2,.28l6.316-5.155a1.341,1.341,0,0,0,.31-1.732l-12.823-21.612a1.341,1.341,0,0,0-2.3-.05Z" transform="translate(-51.915 -105.407)" fill="#263238"/>
      <path id="Path_24808" data-name="Path 24808" d="M130.241,325.424s15.776-2.623,26.617,19.6l2.693-3.313s-10.441-17.388-18.949-18.939S129,321.21,129,321.21Z" transform="translate(-51.921 -105.399)" fill="#e97758"/>
      <path id="Path_24809" data-name="Path 24809" d="M130.241,325.424s15.776-2.623,26.617,19.6l2.693-3.313s-10.441-17.388-18.949-18.939S129,321.21,129,321.21Z" transform="translate(-51.921 -105.399)" fill="#fff" opacity="0.5"/>
      <line id="Line_209" data-name="Line 209" y1="5.816" x2="25.746" transform="translate(10.281 166.25)" fill="none" stroke="#263238" stroke-linecap="round" stroke-linejoin="round" stroke-width="1"/>
      <path id="Path_24810" data-name="Path 24810" d="M225.586,333.51a82.285,82.285,0,0,1-9.32.931c-4.835.19-6.887.19-6.146,1.311s6.527,2.232,8.569,2.6S225.586,333.51,225.586,333.51Z" transform="translate(-51.838 -105.386)" fill="#fff" stroke="#263238" stroke-miterlimit="10" stroke-width="1"/>
      <line id="Line_210" data-name="Line 210" x1="8.619" y1="4.505" transform="translate(346.676 264.111)" fill="none" stroke="#263238" stroke-linecap="round" stroke-linejoin="round" stroke-width="1"/>
      <path id="Path_24811" data-name="Path 24811" d="M234.94,268.861s1.812-3.173,2.573.761Z" transform="translate(-51.812 -105.454)" fill="#263238"/>
      <line id="Line_211" data-name="Line 211" x1="210.136" y1="109.783" transform="translate(131.205 151.535)" fill="none" stroke="#263238" stroke-linecap="round" stroke-linejoin="round" stroke-width="1"/>
      <path id="Path_24812" data-name="Path 24812" d="M188.59,299.962l44.155,28.469,36.317-14.815-48.92-24.866Z" transform="translate(-51.86 -105.432)" fill="#fff" stroke="#263238" stroke-linecap="round" stroke-linejoin="round" stroke-width="1"/>
      <line id="Line_212" data-name="Line 212" x1="17.598" y2="6.216" transform="translate(147.511 188.593)" fill="none" stroke="#fff" stroke-linecap="round" stroke-linejoin="round" stroke-width="0.5"/>
      <path id="Path_24813" data-name="Path 24813" d="M202.12,302.3l31.753,20.021,25.877-10.01" transform="translate(-51.846 -105.418)" fill="none" stroke="#fff" stroke-linecap="round" stroke-linejoin="round" stroke-width="0.5"/>
      <path id="Path_24814" data-name="Path 24814" d="M370.363,165.56s25.286,4,33.424,17.558,2.322,34.856-.39,42.213c-2.453,6.677,4.795,12.253,9.25,15.876,10.01,8.128,15.166,19.6,9.96,32.083-3.243,7.768-17.668,11.252-15.716,20.6s10.451,22.463-.39,32.153c-11.442,10.211-28.609,4.945-38.64-4.595-11.282-10.731-15.166-29.4-9.39-43.825,7.007-17.428,10.841-28.659,4.254-36.037s-15.105-12.012-15.105-22.463,9.3-13.554,13.174-24.025-1.552-21.3-1.552-21.3Z" transform="translate(-51.696 -105.559)" fill="#263238" stroke="#263238" stroke-linecap="round" stroke-linejoin="round" stroke-width="1"/>
      <path id="Path_24815" data-name="Path 24815" d="M394,183.62c4.885,3.694,9.33,9.91,7.788,20.021-3.123,20.521-18.289,21.862-8.479,34.8s18.739,7.127,16.947,23.184-7.578,21.852-7.578,21.852" transform="translate(-51.653 -105.54)" fill="none" stroke="#fff" stroke-miterlimit="10" stroke-width="1"/>
      <path id="Path_24816" data-name="Path 24816" d="M383.55,178.69a27.7,27.7,0,0,1,5.666,2" transform="translate(-51.659 -105.545)" fill="none" stroke="#fff" stroke-miterlimit="10" stroke-width="1"/>
      <path id="Path_24817" data-name="Path 24817" d="M378.65,184.49s12.933,3.564,16.947,14.265-12.012,19.63-12.933,26.317" transform="translate(-51.664 -105.539)" fill="none" stroke="#fff" stroke-miterlimit="10" stroke-width="1"/>
      <path id="Path_24818" data-name="Path 24818" d="M378.127,358.974c-.18-6.136-.26-14.325.11-22.964.781-17.818,22.083-41.453,22.853-45.707s-1.161-5.005-1.161-5.005L357.706,267.09c-19.63,12.893-24.405,50.392-25.576,67.89Z" transform="translate(-51.712 -105.455)" stroke="#263238" stroke-linecap="round" stroke-linejoin="round" stroke-width="1" fill="url(#linear-gradient-8)"/>
      <path id="Path_24819" data-name="Path 24819" d="M395.3,286.41s3.544,2.212,0,5.756S382,310.775,378,319.634" transform="translate(-51.665 -105.435)" fill="none" stroke="#263238" stroke-linecap="round" stroke-linejoin="round" stroke-width="0.5"/>
      <path id="Path_24820" data-name="Path 24820" d="M376.253,324s-3.1,7.087-2.653,14.175.44,13.734.44,13.734" transform="translate(-51.669 -105.396)" fill="none" stroke="#263238" stroke-linecap="round" stroke-linejoin="round" stroke-width="0.5"/>
      <path id="Path_24821" data-name="Path 24821" d="M293.513,276.89c1.862,4.845,4.1,15.266,2.613,21.222-.771,3.093-3.353,9.59-5.646,15.126l56.928,29.751c-.06-11.852.09-30.561,1.6-34.035,2.232-5.215,20.111-54.366,19.02-65.537s-22.713-27.188-22.713-27.188L348.63,189,328.9,200.922s-2.242,10.791-4.475,13.4-20.481,6.327-25.7,13.013-3.353,27.188-3.353,28.3S291.651,272.085,293.513,276.89Z" transform="translate(-51.755 -105.535)" fill="#fff"/>
      <g id="Group_6025" data-name="Group 6025" transform="translate(238.725 83.465)" clip-path="url(#clip-path-3)">
        <path id="Path_24822" data-name="Path 24822" d="M367.962,243.376c-1.121-11.171-22.713-27.188-22.713-27.188L348.592,189l-19.73,11.922s-.651,3.113-1.592,6.407c1.271-.11,2.693-.29,4.284-.571,7.528-1.331,11.522-4,11.522-4l-4,16.837s20.381,12.012,25.7,26.587c.721,2,1.492,3.874,2.282,5.736A33.034,33.034,0,0,0,367.962,243.376Z" transform="translate(-290.442 -189)" fill="#e97758" opacity="0.5"/>
      </g>
      <path id="Path_24824" data-name="Path 24824" d="M293.513,276.89c1.862,4.845,4.1,15.266,2.613,21.222-.771,3.093-3.353,9.59-5.646,15.126l56.928,29.751c-.06-11.852.09-30.561,1.6-34.035,2.232-5.215,20.111-54.366,19.02-65.537s-22.713-27.188-22.713-27.188L348.63,189,328.9,200.922s-2.242,10.791-4.475,13.4-20.481,6.327-25.7,13.013-3.353,27.188-3.353,28.3S291.651,272.085,293.513,276.89Z" transform="translate(-51.755 -105.535)" fill="none" stroke="#263238" stroke-linecap="round" stroke-linejoin="round" stroke-width="1"/>
      <path id="Path_24825" data-name="Path 24825" d="M293.513,276.86c1.862,4.845,4.1,15.266,2.613,21.222-.771,3.093-3.353,9.59-5.646,15.125l56.928,29.751c-.06-11.852.09-30.561,1.6-34.035,2.232-5.215,20.111-54.366,19.02-65.537-.691-6.957-9.32-15.776-15.736-21.452-6.316,6.7-20.021,19.19-30.031,13.624-9.009-5.005-8.439-12.613-7.107-17.138-6.086,2.242-13.364,5.105-16.357,8.949-5.215,6.707-3.353,27.188-3.353,28.3S291.651,272.055,293.513,276.86Z" transform="translate(-51.755 -105.505)" fill="#263238" stroke="#263238" stroke-linecap="round" stroke-linejoin="round" stroke-width="1"/>
      <path id="Path_24826" data-name="Path 24826" d="M326.756,263.592l-12.393-5.816s-3.494-5.806-5.426-5.806-3.1,8.138-3.1,8.138-6.577,6.2-4.254,12.393,10.841,15.5,21.3,12.012,7.358-14.325,7.358-14.325,4.264-7.358,4.264-8.909S326.756,263.592,326.756,263.592Z" transform="translate(-51.744 -105.47)" fill="#fff" stroke="#263238" stroke-linecap="round" stroke-linejoin="round" stroke-width="1"/>
      <path id="Path_24827" data-name="Path 24827" d="M300.211,143.631s2.613,13.414,2.232,22.723-4.094,13.013-3,17.128,14.525,19.37,22.713,20.851,27.558-11.171,33.144-16.757,6.327-13.774,5.586-17.128-3.724-30.161-14.9-40.962S305.426,119.807,300.211,143.631Z" transform="translate(-51.746 -105.603)" fill="#fff"/>
      <g id="Group_6026" data-name="Group 6026" transform="translate(247.494 17.325)" clip-path="url(#clip-path-4)">
        <path id="Path_24828" data-name="Path 24828" d="M346.023,129.487c-4.174-4-10.9-6.407-17.958-6.557l-.46,13.894s-2.222,13.734,5.756,24.805,15.065,14.185,15.946,18.609-3.123,8.829-13.294,16.4a76.725,76.725,0,0,1-12.723,7.808c8.719.31,26.687-11.512,32.033-16.867,5.586-5.586,6.327-13.774,5.586-17.128S357.165,140.288,346.023,129.487Z" transform="translate(-299.216 -122.928)" fill="#e97758" opacity="0.5"/>
      </g>
      <path id="Path_24830" data-name="Path 24830" d="M300.211,143.631s2.613,13.414,2.232,22.723-4.094,13.013-3,17.128,14.525,19.37,22.713,20.851,27.558-11.171,33.144-16.757,6.327-13.774,5.586-17.128-3.724-30.161-14.9-40.962S305.426,119.807,300.211,143.631Z" transform="translate(-51.746 -105.603)" fill="none" stroke="#263238" stroke-linecap="round" stroke-linejoin="round" stroke-width="1"/>
      <path id="Path_24831" data-name="Path 24831" d="M314.353,171.14s-1.121,7.077-3,9.31a9.269,9.269,0,0,0,5.215,2.242" transform="translate(-51.733 -105.553)" fill="none" stroke="#263238" stroke-linecap="round" stroke-linejoin="round" stroke-width="1"/>
      <path id="Path_24832" data-name="Path 24832" d="M315.09,189a17.017,17.017,0,0,0,15.266-.741" transform="translate(-51.73 -105.536)" fill="none" stroke="#263238" stroke-linecap="round" stroke-linejoin="round" stroke-width="1"/>
      <path id="Path_24833" data-name="Path 24833" d="M328.483,167.422c0,1.241-.581,2.242-1.3,2.242s-1.3-1-1.3-2.242.581-2.232,1.3-2.232S328.483,166.191,328.483,167.422Z" transform="translate(-51.718 -105.559)" fill="#263238"/>
      <path id="Path_24834" data-name="Path 24834" d="M310.073,164.452c0,1.231-.581,2.232-1.3,2.232s-1.3-1-1.3-2.232.581-2.232,1.3-2.232S310.073,163.221,310.073,164.452Z" transform="translate(-51.737 -105.562)" fill="#263238"/>
      <path id="Path_24835" data-name="Path 24835" d="M305.05,154.781a9.179,9.179,0,0,1,7.077-1.121" transform="translate(-51.74 -105.571)" fill="none" stroke="#263238" stroke-linecap="round" stroke-linejoin="round" stroke-width="1"/>
      <path id="Path_24836" data-name="Path 24836" d="M322.53,155.15s2.232-1.121,7.077,1.862" transform="translate(-51.722 -105.57)" fill="none" stroke="#263238" stroke-linecap="round" stroke-linejoin="round" stroke-width="1"/>
      <path id="Path_24837" data-name="Path 24837" d="M324.8,133.595s-10.421,8.569-15.636,13.774-7.448,8.939-15.266,5.6-13.414-14.905-3-28.679,30.541-17.878,50.272-12.293,27.939,18.249,29.42,32.033-1.5,29.04-8.509,33.144-22.723-12.663-28.309-23.094A148.5,148.5,0,0,1,324.8,133.595Z" transform="translate(-51.76 -105.616)" fill="#263238" stroke="#263238" stroke-linecap="round" stroke-linejoin="round" stroke-width="1"/>
      <path id="Path_24838" data-name="Path 24838" d="M324.79,133.57s-28.119,4.144-29.45,10.381,7.137,4.465,7.137,4.465" transform="translate(-51.75 -105.592)" fill="none" stroke="#fff" stroke-miterlimit="10" stroke-width="1"/>
      <path id="Path_24839" data-name="Path 24839" d="M291.721,137.68c-1.9,4.064-.39,6.717-.39,6.717" transform="translate(-51.755 -105.588)" fill="none" stroke="#fff" stroke-miterlimit="10" stroke-width="1"/>
      <path id="Path_24840" data-name="Path 24840" d="M352.87,120.331s-27.208-4.455-27.208,7.578c0,0-16.5-5.8-27.2,2.232a27.321,27.321,0,0,0-4.395,4" transform="translate(-51.751 -105.606)" fill="none" stroke="#fff" stroke-miterlimit="10" stroke-width="1"/>
      <path id="Path_24841" data-name="Path 24841" d="M327,130.58s6.937,22.383,21.412,28.1" transform="translate(-51.717 -105.595)" fill="none" stroke="#fff" stroke-miterlimit="10" stroke-width="1"/>
      <path id="Path_24842" data-name="Path 24842" d="M341.42,136.59c5.576,4.6,13.554,9.149,23.024,8.7" transform="translate(-51.703 -105.589)" fill="none" stroke="#fff" stroke-miterlimit="10" stroke-width="1"/>
      <path id="Path_24843" data-name="Path 24843" d="M332.76,127.46a45.869,45.869,0,0,0,4.284,5.075" transform="translate(-51.711 -105.598)" fill="none" stroke="#fff" stroke-miterlimit="10" stroke-width="1"/>
      <path id="Path_24844" data-name="Path 24844" d="M297.612,156.64l43.565,7.448s0,6.627-1.862,10.01-4.094,3.424-8.939,3.424-11.582-3-11.912-4.094c-.771-2.643-.25-11.362-.25-11.362l-3.474-.561s.45,10.16-1.411,11.282-14.155-1.121-16.387-4.094S296.12,156.26,297.612,156.64Z" transform="translate(-51.749 -105.568)" fill="none" stroke="#263238" stroke-linecap="round" stroke-linejoin="round" stroke-width="1"/>
      <path id="Path_24845" data-name="Path 24845" d="M341.13,164.083l19.37-3.353v2.6l-19.37,4.845Z" transform="translate(-51.703 -105.564)" fill="#e97758" stroke="#263238" stroke-linecap="round" stroke-linejoin="round" stroke-width="1"/>
      <ellipse id="Ellipse_776" data-name="Ellipse 776" cx="17.268" cy="10.801" rx="17.268" ry="10.801" transform="translate(299.025 74.46) rotate(-80.87)" stroke="#263238" stroke-linecap="round" stroke-linejoin="round" stroke-width="1" fill="url(#linear-gradient-9)"/>
      <path id="Path_24846" data-name="Path 24846" d="M377.886,166.786c-1.271,7.928-5.686,13.8-9.84,13.133s-6.507-7.628-5.235-15.556,5.676-13.794,9.84-13.123S379.157,158.868,377.886,166.786Z" transform="translate(-51.681 -105.574)" stroke="#263238" stroke-linecap="round" stroke-linejoin="round" stroke-width="1" fill="url(#linear-gradient-9)"/>
      <path id="Path_24847" data-name="Path 24847" d="M372,133.577a88.289,88.289,0,0,1-3.353,30.912s-.37,6.006,5.215,3.353,4.845-25.326,4.094-34.636S370.152,126.5,372,133.577Z" transform="translate(-51.674 -105.598)" fill="#fff" stroke="#263238" stroke-linecap="round" stroke-linejoin="round" stroke-width="1"/>
      <path id="Path_24848" data-name="Path 24848" d="M351.188,116.091s8.559-2.232,13.013,5.6,3.724,14.9,10.01,15.636,6.707-6.327,3.353-15.266-10.421-15.646-20.111-16.387A16.089,16.089,0,0,0,343,112.747S348.205,113.488,351.188,116.091Z" transform="translate(-51.701 -105.621)" stroke="#263238" stroke-linecap="round" stroke-linejoin="round" stroke-width="1" fill="url(#linear-gradient-9)"/>
      <path id="Path_24849" data-name="Path 24849" d="M350.581,255.236l-25.7,58.47s-70.012,13.013-76.338,13.013-19.02,4.465-21.6,6.006-27.9,13.164-23.024,13.884c3,.451,10.771-3.824,10.771-3.824S202.4,348.792,203.51,350.6s16.016-5.586,16.016-5.586-13.624,8.008-10.831,8.459c2.543.451,5.616-1,8.228-2.873a30.272,30.272,0,0,1,7.3-3.243s-6.006,4-6.717,5.826,1.492.741,3.724,0a92.333,92.333,0,0,0,12.082-6.306c1.482-1.121,5.956-3.353,8.939-5.956l5.956-5.215s39.841,1.111,58.06.37,27.188-2.6,33.895-9.31,25.7-49.16,30.161-60.7,1.492-18.249-3-26.027" transform="translate(-51.844 -105.482)" fill="#fff"/>
      <g id="Group_6027" data-name="Group 6027" transform="translate(151.454 134.558)" clip-path="url(#clip-path-5)">
        <path id="Path_24850" data-name="Path 24850" d="M351.575,293.532c-12.012,22.593-22.153,29.68-32.784,35.036s-69.121,6.647-69.121,6.647l2.463.591c10.561.26,39.36.871,54.056.27,18.249-.741,27.188-2.6,33.895-9.31s25.7-49.16,30.161-60.7c2.072-5.345,2.533-9.65,2-13.514l-2.533,1.592A359.036,359.036,0,0,1,351.575,293.532Z" transform="translate(-203.251 -240.027)" fill="#e97758" opacity="0.5"/>
      </g>
      <path id="Path_24852" data-name="Path 24852" d="M350.581,255.236l-25.7,58.47s-70.012,13.013-76.338,13.013-19.02,4.465-21.6,6.006-27.9,13.164-23.024,13.884c3,.451,10.771-3.824,10.771-3.824S202.4,348.792,203.51,350.6s16.016-5.586,16.016-5.586-13.624,8.008-10.831,8.459c2.543.451,5.616-1,8.228-2.873a30.272,30.272,0,0,1,7.3-3.243s-6.006,4-6.717,5.826,1.492.741,3.724,0a92.333,92.333,0,0,0,12.082-6.306c1.482-1.121,5.956-3.353,8.939-5.956l5.956-5.215s39.841,1.111,58.06.37,27.188-2.6,33.895-9.31,25.7-49.16,30.161-60.7,1.492-18.249-3-26.027" transform="translate(-51.844 -105.482)" fill="none" stroke="#263238" stroke-miterlimit="10" stroke-width="1"/>
      <path id="Path_24853" data-name="Path 24853" d="M350.008,253.764l-7.818,20.271c5.746-3.063,16.527-7.177,25.126-1,1.211-2.843,2.2-5.245,2.863-6.957,4.475-11.542,1.491-18.249-3-26.027" transform="translate(-51.702 -105.482)" fill="#263238" stroke="#263238" stroke-linecap="round" stroke-linejoin="round" stroke-width="1"/>
      <path id="Path_24854" data-name="Path 24854" d="M294.8,280.62c-7.558,2.212-37.408,10.951-40.181,11.6a42.632,42.632,0,0,1-5.215.931s-10.431-4.475-13.224-6.517-6.146-.751-7.818,0-3,5.956.19,5.956,3.724-.19,7.257,2.793,3.544,4.475,6.146,5.586,6.9.37,9.129,0c2-.33,36.618-2.633,45.136-3.083C297.333,293.2,296.221,285.885,294.8,280.62Z" transform="translate(-51.821 -105.441)" fill="#fff"/>
      <g id="Group_6028" data-name="Group 6028" transform="translate(174.788 175.179)" clip-path="url(#clip-path-6)">
        <path id="Path_24855" data-name="Path 24855" d="M295.966,286,251.06,301.015c2-.33,36.618-2.633,45.136-3.083C296.957,294.669,296.677,290.214,295.966,286Z" transform="translate(-226.583 -280.614)" fill="#e97758" opacity="0.5"/>
      </g>
      <path id="Path_24857" data-name="Path 24857" d="M294.8,280.62c-7.558,2.212-37.408,10.951-40.181,11.6a42.632,42.632,0,0,1-5.215.931s-10.431-4.475-13.224-6.517-6.146-.751-7.818,0-3,5.956.19,5.956,3.724-.19,7.257,2.793,3.544,4.475,6.146,5.586,6.9.37,9.129,0c2-.33,36.618-2.633,45.136-3.083C297.333,293.2,296.221,285.885,294.8,280.62Z" transform="translate(-51.821 -105.441)" fill="none" stroke="#263238" stroke-linecap="round" stroke-linejoin="round" stroke-width="1"/>
      <path id="Path_24858" data-name="Path 24858" d="M220.175,292.77S216.261,295,215.17,297.6s1.111,1.862,1.862,1.311,3.914-3.173,3.914-3.173Z" transform="translate(-51.833 -105.428)" fill="#fff" stroke="#263238" stroke-linecap="round" stroke-linejoin="round" stroke-width="1"/>
      <path id="Path_24859" data-name="Path 24859" d="M221.292,290.9a4.475,4.475,0,0,0-2,4.475c.37,3.163,3.724,7.818,4.1,5.956S221.292,290.9,221.292,290.9Z" transform="translate(-51.828 -105.43)" fill="#fff" stroke="#263238" stroke-linecap="round" stroke-linejoin="round" stroke-width="1"/>
      <path id="Path_24860" data-name="Path 24860" d="M225.945,288.11s-3.544.931-4.655,2.793.741,9.88,2.052,10.431a2,2,0,0,0,2.793-1.482C226.506,298.541,225.945,288.11,225.945,288.11Z" transform="translate(-51.826 -105.433)" fill="#fff" stroke="#263238" stroke-linecap="round" stroke-linejoin="round" stroke-width="1"/>
      <path id="Path_24861" data-name="Path 24861" d="M230.416,286.25s-4.665,0-5.215,2.242-1.492,11.912-.561,13.4,2.422.931,3.163-.931S230.416,286.25,230.416,286.25Z" transform="translate(-51.823 -105.435)" fill="#fff" stroke="#263238" stroke-linecap="round" stroke-linejoin="round" stroke-width="1"/>
      <path id="Path_24862" data-name="Path 24862" d="M234.648,268.92,227,303.746l1.2,4.445a.4.4,0,0,0,.671.18l3.343-3.323,5.586-35.2Z" transform="translate(-51.82 -105.453)" fill="#263238"/>
      <path id="Path_24863" data-name="Path 24863" d="M242.144,297s-4.284,1.682-7.638,3.173-6.707,2.232-6.337,4.284,1.862,1.3,4.284.561A50.986,50.986,0,0,1,242.7,302.6c4.655-.561,8.379-4.845,8.379-4.845" transform="translate(-51.819 -105.424)" fill="#fff" stroke="#263238" stroke-linecap="round" stroke-linejoin="round" stroke-width="1"/>
      <path id="Path_24864" data-name="Path 24864" d="M227.1,304.25l.781,3.283a.931.931,0,0,0,1.542.461l1.832-1.742" transform="translate(-51.82 -105.416)" fill="none" stroke="#fff" stroke-linecap="round" stroke-linejoin="round" stroke-width="0.5"/>
      <line id="Line_213" data-name="Line 213" y1="17.638" x2="3.954" transform="translate(175.19 180.655)" fill="none" stroke="#fff" stroke-linecap="round" stroke-linejoin="round" stroke-width="0.5"/>
      <line id="Line_214" data-name="Line 214" x2="50.502" y2="46.968" transform="translate(38.379 129.132)" fill="none" stroke="#263238" stroke-linecap="round" stroke-linejoin="round" stroke-width="0.5"/>
    </g>
  </g>
</svg>
